#N canvas 1252 266 450 300 12;
#X msg 207 24 devicename /dev/ttyACM0;
#X obj 186 113 serial_print;
#X msg 118 9 devices;
#X msg 118 51 close;
#X obj 185 69 comport 0 9600;
#X obj 181 245 outlet;
#X obj 196 159 unpack;
#X obj 265 250 outlet;
#X obj 179 197 sel 1;
#X connect 0 0 4 0;
#X connect 1 0 6 0;
#X connect 2 0 4 0;
#X connect 3 0 4 0;
#X connect 4 0 1 0;
#X connect 6 0 8 0;
#X connect 6 1 7 0;
#X connect 8 0 5 0;
