#N canvas 0 0 1080 968 12;
#X obj 269 310 makenote;
#X obj 786 573 playMidiOnhihat;
#X obj 427 396 cyclone;
#X msg 244 489 stop;
#X obj 74 262 enableWhileInput;
#X obj 86 344 sel 1;
#X obj 53 414 sel 0;
#X obj 298 591 midiout;
#X obj 269 342 pack;
#X msg 238 421 record;
#X msg 366 429 start;
#X msg 270 276 42 127 20;
#X obj 254 161 t b b;
#X obj 266 376 cyclone/midiformat;
#X obj 448 750 python_comm;
#X obj 572 729 tgl 20 0 empty empty empty 0 -10 0 12 #fcfcfc #000000 #000000 0 1;
#X obj 355 494 cyclone/seq;
#X obj 139 460 t b b;
#X msg 214 519 write test.mid;
#X obj 429 549 file cwd;
#X obj 430 576 list;
#X msg 521 540 test.mid;
#X obj 251 560 t b;
#X obj 460 608 file join;
#X msg 191 226 2;
#X obj 146 166 loadbang;
#X obj 591 337 vsl 20 170 0 2 0 0 empty empty empty 0 -9 0 12 #ffffff #ff8300 #ff0400 0 1;
#X obj 491 650 list;
#X floatatom 591 596 5 0 0 0 - - - 0;
#X obj 558 659 print;
#X msg 442 697 set GrooVAE \, \$2 \$1;
#X obj 446 942 seq \$1;
#X obj 437 1232 midiout;
#X obj 441 805 oscparse;
#X msg 443 889 read \$2;
#X obj 308 924 t b;
#X obj 317 973 delay 0.02;
#X obj 837 314 bng 20 250 50 0 empty empty empty 0 -10 0 12 #fcfcfc #000000 #000000;
#X obj 841 220 loadbang;
#X obj 590 258 loadbang;
#X msg 588 292 1;
#X obj 825 523 makenote;
#X msg 826 489 42 127 20;
#X msg 897 382 1;
#X msg 936 383 0;
#X obj 833 444 spigot;
#X obj 926 437 tgl 20 0 empty empty empty 0 -10 0 12 #fcfcfc #000000 #000000 0 1;
#X msg 592 871 1;
#X msg 631 872 0;
#X obj 621 926 tgl 20 0 empty empty empty 0 -10 0 12 #fcfcfc #000000 #000000 0 1;
#X obj 583 969 spigot;
#X obj 611 1009 bng 20 250 50 0 empty empty empty 0 -10 0 12 #fcfcfc #000000 #000000;
#X obj 838 273 metro 0 0.5 sec;
#X obj 384 77 arduino_comm/listenToSerialPort;
#X obj 381 121 print;
#X obj 353 166 bng 20 250 50 0 empty empty empty 0 -10 0 12 #fcfcfc #000000 #000000;
#X obj 137 302 tgl 20 0 empty empty empty 0 -10 0 12 #fcfcfc #000000 #000000 0 1;
#X obj 255 110 bng 20 250 50 0 empty empty empty 0 -10 0 12 #fcfcfc #000000 #000000;
#X text 624 403 intensity;
#X obj 437 1042 cyclone/midiparse;
#X obj 441 1175 cyclone/midiformat;
#X obj 365 1087 unpack;
#X obj 366 1157 pack;
#X obj 98 746 vsl 20 170 0 127 0 0 empty empty empty 0 -9 0 12 #fcfcfc #000000 #000000 0 1;
#X obj 103 1066 expr $i1 + $i2;
#X obj 124 1117 min;
#X msg 157 1096 100;
#X obj 14 1081 loadbang;
#X floatatom 98 970 5 0 0 0 - - - 0;
#X obj 208 1005 t;
#X obj 272 1077 moses 1;
#X msg 303 873 stop;
#X connect 0 0 8 0;
#X connect 0 1 8 1;
#X connect 3 0 16 0;
#X connect 4 0 5 0;
#X connect 4 0 6 0;
#X connect 4 0 56 0;
#X connect 5 0 9 0;
#X connect 5 0 48 0;
#X connect 5 0 71 0;
#X connect 6 0 10 0;
#X connect 6 0 17 0;
#X connect 8 0 13 0;
#X connect 9 0 16 0;
#X connect 10 0 16 0;
#X connect 11 0 0 0;
#X connect 12 0 11 0;
#X connect 12 1 4 0;
#X connect 12 1 55 0;
#X connect 12 1 42 0;
#X connect 13 0 16 0;
#X connect 14 0 33 0;
#X connect 15 0 14 1;
#X connect 16 0 7 0;
#X connect 17 0 18 0;
#X connect 17 1 3 0;
#X connect 18 0 16 0;
#X connect 18 0 22 0;
#X connect 19 0 20 0;
#X connect 20 0 23 0;
#X connect 21 0 20 1;
#X connect 22 0 19 0;
#X connect 22 0 21 0;
#X connect 22 0 47 0;
#X connect 23 0 27 0;
#X connect 24 0 4 1;
#X connect 25 0 24 0;
#X connect 26 0 28 0;
#X connect 27 0 29 0;
#X connect 27 0 30 0;
#X connect 28 0 27 1;
#X connect 30 0 14 0;
#X connect 31 0 59 0;
#X connect 31 1 47 0;
#X connect 33 0 34 0;
#X connect 34 0 31 0;
#X connect 34 0 35 0;
#X connect 35 0 36 0;
#X connect 35 0 44 0;
#X connect 36 0 47 0;
#X connect 37 0 45 0;
#X connect 37 0 50 0;
#X connect 38 0 43 0;
#X connect 38 0 52 0;
#X connect 39 0 40 0;
#X connect 39 0 21 0;
#X connect 40 0 26 0;
#X connect 41 0 1 0;
#X connect 41 1 1 1;
#X connect 42 0 41 0;
#X connect 43 0 46 0;
#X connect 44 0 46 0;
#X connect 45 0 42 0;
#X connect 46 0 45 1;
#X connect 47 0 49 0;
#X connect 48 0 49 0;
#X connect 49 0 50 1;
#X connect 50 0 48 0;
#X connect 50 0 51 0;
#X connect 51 0 31 0;
#X connect 52 0 37 0;
#X connect 53 0 12 0;
#X connect 53 0 54 0;
#X connect 57 0 12 0;
#X connect 59 0 61 0;
#X connect 59 1 60 1;
#X connect 59 2 60 2;
#X connect 59 3 60 3;
#X connect 59 4 60 4;
#X connect 59 5 60 5;
#X connect 59 6 60 6;
#X connect 60 0 32 0;
#X connect 61 0 62 0;
#X connect 61 1 69 0;
#X connect 61 1 70 0;
#X connect 62 0 60 0;
#X connect 63 0 68 0;
#X connect 64 0 65 0;
#X connect 65 0 62 1;
#X connect 65 0 60 1;
#X connect 66 0 65 1;
#X connect 67 0 66 0;
#X connect 68 0 64 0;
#X connect 69 1 68 0;
#X connect 70 0 62 1;
#X connect 70 1 64 1;
#X connect 71 0 31 0;
#X coords 0 0 0.5 0.5 0 0 0;
