#N canvas 1080 840 1920 968 12;
#X obj 272 117 bng 20 250 50 0 empty empty empty 0 -10 0 12 #fcfcfc #000000 #000000;
#X obj 269 310 makenote;
#X obj 408 355 playMidiOnhihat;
#X obj 427 396 cyclone;
#X msg 253 470 stop;
#X floatatom 182 216 5 0 0 0 - - - 0;
#X obj 74 262 enableWhileInput;
#X obj 86 344 sel 1;
#X obj 53 414 sel 0;
#X obj 354 560 midiout;
#X obj 269 342 pack;
#X obj 266 376 midiformat;
#X msg 238 421 record;
#X obj 355 494 cyclone/seq;
#X msg 366 429 start;
#X msg 270 276 42 127 20;
#X obj 254 161 t b b;
#X connect 0 0 16 0;
#X connect 1 0 10 0;
#X connect 1 1 10 1;
#X connect 4 0 13 0;
#X connect 5 0 6 1;
#X connect 6 0 7 0;
#X connect 6 0 8 0;
#X connect 7 0 12 0;
#X connect 8 0 4 0;
#X connect 8 0 14 0;
#X connect 10 0 11 0;
#X connect 11 0 13 0;
#X connect 12 0 13 0;
#X connect 13 0 9 0;
#X connect 14 0 13 0;
#X connect 15 0 1 0;
#X connect 16 0 15 0;
#X connect 16 1 6 0;
#X coords 0 0 0.5 0.5 0 0 0;
